<svg width="48" height="48" viewBox="0 0 48 48" fill="none" xmlns="http://www.w3.org/2000/svg">
<path d="M24 4C35.0457 4 44 12.9543 44 24C44 35.0457 35.0457 44 24 44C12.9543 44 4 35.0457 4 24C4 12.9543 12.9543 4 24 4ZM24 5.5C13.7827 5.5 5.5 13.7827 5.5 24C5.5 34.2173 13.7827 42.5 24 42.5C34.2173 42.5 42.5 34.2173 42.5 24C42.5 13.7827 34.2173 5.5 24 5.5ZM29.6416 20.624C32.0487 20.6243 34 22.5945 34 25.0244C33.9996 25.4171 33.7101 25.7425 33.335 25.7939L33.2305 25.8008H26.8203V27.0361L26.8447 27.1738C27.0689 28.2744 27.9164 29.1418 29.0039 29.3818L29.1875 29.415C30.4242 29.6029 31.6359 28.9461 32.1641 27.8018C32.3435 27.4132 32.8015 27.2448 33.1865 27.4258C33.5714 27.6069 33.7379 28.0694 33.5586 28.458C32.7423 30.2265 30.8693 31.2416 28.958 30.9512C27.1177 30.6712 25.6652 29.2449 25.3242 27.4141L25.2891 27.2012L25.2822 27.0947V25.0244C25.2822 22.5943 27.2342 20.624 29.6416 20.624ZM19.3848 17C21.5089 17.0001 23.2305 18.7387 23.2305 20.8828C23.2303 22.1277 22.6497 23.2359 21.7471 23.9463L21.6904 23.9883L21.7471 24.0303C22.5996 24.7012 23.1653 25.7271 23.2256 26.8877L23.2305 27.0947C23.2302 29.1695 21.6179 30.8645 19.5889 30.9717L19.3848 30.9766H14.7695C14.3801 30.9766 14.0578 30.6846 14.0068 30.3057L14 30.2002V17.7764C14.0001 17.3833 14.2896 17.0582 14.665 17.0068L14.7695 17H19.3848ZM15.5381 29.4238H19.3848C20.606 29.4237 21.6052 28.4659 21.6865 27.2539L21.6924 27.0947C21.6924 25.8619 20.7436 24.8527 19.543 24.7705L19.3848 24.7646H15.5381V29.4238ZM29.6416 22.1768C28.3723 22.1768 27.2984 23.0234 26.9443 24.1875L26.9277 24.248H32.3545L32.3379 24.1875C32 23.0765 31.0067 22.2553 29.8135 22.1826L29.6416 22.1768ZM15.5381 23.2119H19.4033L19.543 23.2061C20.7435 23.1239 21.6922 22.1154 21.6924 20.8828C21.6924 19.65 20.7436 18.6407 19.543 18.5586L19.3848 18.5527H15.5381V23.2119ZM31.1797 17C31.6044 17.0001 31.9482 17.3476 31.9482 17.7764C31.9482 18.1694 31.6595 18.4943 31.2842 18.5459L31.1797 18.5527H28.1025C27.6777 18.5527 27.333 18.2052 27.333 17.7764C27.3331 17.3834 27.6227 17.0583 27.998 17.0068L28.1025 17H31.1797Z" fill="#212121"/>
</svg>
