<svg width="48" height="48" viewBox="0 0 48 48" fill="none" xmlns="http://www.w3.org/2000/svg">
<path d="M24 4C35.0457 4 44 12.9543 44 24C44 35.0457 35.0457 44 24 44C12.9543 44 4 35.0457 4 24C4 12.9543 12.9543 4 24 4ZM24 5.5C13.7827 5.5 5.5 13.7827 5.5 24C5.5 34.2173 13.7827 42.5 24 42.5C34.2173 42.5 42.5 34.2173 42.5 24C42.5 13.7827 34.2173 5.5 24 5.5ZM28.5713 14C31.5694 14 34 16.4306 34 19.4287V28.5713C34 31.5694 31.5694 34 28.5713 34H19.4287C16.4306 34 14 31.5694 14 28.5713V19.4287C14 16.4306 16.4306 14 19.4287 14H28.5713ZM19.4287 15.7139C17.3774 15.7139 15.7139 17.3774 15.7139 19.4287V28.5713C15.7139 30.6226 17.3774 32.2861 19.4287 32.2861H28.5713C30.6226 32.2861 32.2861 30.6226 32.2861 28.5713V19.4287C32.2861 17.3774 30.6226 15.7139 28.5713 15.7139H19.4287ZM24 19.7139C26.3666 19.7141 28.2849 21.6334 28.2852 24C28.2849 26.3666 26.3666 28.2849 24 28.2852C21.6334 28.2849 19.7141 26.3666 19.7139 24C19.7141 21.6334 21.6334 19.7141 24 19.7139ZM24 21.4277C22.5802 21.428 21.428 22.5802 21.4277 24C21.428 25.4198 22.5802 26.5711 24 26.5713C25.4198 26.5711 26.5711 25.4198 26.5713 24C26.5711 22.5802 25.4198 21.428 24 21.4277ZM29.1426 18C29.5765 18 29.9354 18.3228 29.9922 18.7412L30 18.8574C29.9998 19.3318 29.6159 19.7158 29.1426 19.7158C28.7088 19.7157 28.3507 19.3929 28.2939 18.9746L28.2861 18.8584C28.2861 18.384 28.6693 18.0001 29.1426 18Z" fill="#212121"/>
</svg>
